<svg xmlns="http://www.w3.org/2000/svg" viewBox="0 0 156.3 264.45"><title>Asset 10knight-white</title><g id="a25ea485-dce8-49dc-84c5-eee9961522f5" data-name="Layer 2"><g id="ee85a0da-ef1d-4562-95b7-4cd64c8faf4c" data-name="Layer 1"><path d="M79.67,231.63c20,0,45.38-3.38,56.42-12.45,3.17,2.74,7.94,4.77,13.53,8.67,9.95,6.93,5.83,16.07,5.83,16.07s-15,20.53-72.16,20.53-72.17-20.53-72.17-20.53S7,234.78,17,227.85c4.22-2.94,8-4.81,10.91-6.72,10.45,7.66,32.64,10.5,51.71,10.5Z" style="fill:#fff"/><path d="M34.29,206.64c9,3.11,21.63,5.15,38.69,5.15,18.87,0,43.17-2.51,59.78-8.59a39.05,39.05,0,0,0-.65,7,12.78,12.78,0,0,0,.75,4.35C125.1,221.36,104.19,226,79.67,226h-.1c-21,0-39-3.49-47.28-8.77a11.11,11.11,0,0,0,2.17-7C34.46,209,34.4,207.78,34.29,206.64Z" style="fill:#fff"/><path d="M143.73,175.92c-5.13,8.61-30.62,17.61-64.85,17.61-4.09,0-7.94-.14-11.66-.36-.44-10.76,3.34-22.67,11.25-34.62,4.87-7.36,10.79-14.23,16.52-20.88,3-3.45,6-6.91,8.81-10.45,14.78-18.29,23.73-35.73,27.34-53.31,2.25-11,4-29.28-3.34-46A73,73,0,0,1,141.56,44.8c20.63,35.37,7.62,67.27-5.89,91.35C129.68,146.83,139,163.65,143.73,175.92Z" style="fill:#fff"/><path d="M78.88,199.16c29.83,0,56.41-6.94,66.79-16.77a16.88,16.88,0,0,1,.51,3.14c0,11.07-34.08,20.63-73.2,20.63s-52-11.07-52-17.68a24.92,24.92,0,0,0-.29-3.21C32.43,194.46,51.92,199.16,78.88,199.16Z" style="fill:#fff"/><path d="M38.19,36.56c-2.52,2.62-3.27,6.29-2.83,9.9C36.23,53.57,7,67.11.36,82.79c-1.94,4.62,4.17,26,12.6,26C27.7,108.58,29.36,93,44.59,93c38,0,51.28-13,47.66-32.18,0,0,8,12.89-10.47,34.61-12.86,15.16-32.22,23.77-53.15,48.49-8.18,9.67-11.85,28.72-7.48,34.47S42.68,191,61.63,192.74c-.3-11.78,3.73-24.58,12.14-37.3,5.07-7.65,11.11-14.66,17-21.44,2.93-3.41,5.87-6.82,8.69-10.32,14.22-17.57,22.79-34.23,26.21-50.91,2.66-13,4.62-37.2-10.78-54.69C88.05,1.36,56.54,0,56.54,0l1.58,21.11A91.05,91.05,0,0,0,38.19,36.56ZM12.88,86.91c.46,2.22-1.29,6.39-4.08,6C6.49,92.65,5.7,89.7,7.06,88,7.69,87.26,12.63,85.69,12.88,86.91ZM44,49.81c3.11-4.33,13.32-7.41,17.8-6.55C61.82,45.48,60.21,59.44,44,49.81Z" style="fill:#fff"/></g></g></svg>