<svg data-name="Layer 1" xmlns="http://www.w3.org/2000/svg" viewBox="0 0 1321.75 1082">
    <path transform="rotate(-83.91 1144.21 100.276)" style="fill:#231f20" d="M1107.8 66.04h70.75v70.75h-70.75z"/>
    <path transform="rotate(-83.91 1301.327 294.903)" style="fill:#231f20" d="M1282.6 278.35h35.37v35.37h-35.37z"/>
    <path transform="rotate(-83.91 1106.7 452.031)" style="fill:#231f20" d="M1070.29 417.78h70.75v70.75h-70.75z"/>
    <path transform="rotate(-83.91 1263.823 646.653)" style="fill:#231f20" d="M1245.09 630.09h35.37v35.37h-35.37z"/>
    <path transform="rotate(-83.91 1069.197 803.781)" style="fill:#231f20" d="M1032.78 769.52h70.75v70.75h-70.75z"/>
    <path transform="rotate(-83.91 1226.314 998.408)" style="fill:#231f20" d="M1207.58 981.84h35.37v35.37h-35.37z"/>
    <path style="fill:#231f20" d="M848.42 132.02 861.55 8.91 778.03 0h-40.04l-12.68 118.89 123.11 13.13z"/>
    <path transform="rotate(-83.91 949.578 257.399)" style="fill:#231f20" d="M899.91 209.89h97.28v97.28h-97.28z"/>
    <path transform="rotate(-83.91 754.945 414.522)" style="fill:#231f20" d="M692.02 353.74h123.81v123.81H692.02z"/>
    <path transform="rotate(-83.91 912.068 609.154)" style="fill:#231f20" d="M862.4 561.63h97.28v97.28H862.4z"/>
    <path transform="rotate(-83.91 717.441 766.272)" style="fill:#231f20" d="M654.5 705.48h123.81v123.81H654.5z"/>
    <path transform="rotate(-83.91 874.564 960.904)" style="fill:#231f20" d="M824.88 913.37h97.28v97.28h-97.28z"/>
    <path style="fill:#231f20" d="m625.9 1051.01-3.3 30.99h124.51l1.9-17.87-123.11-13.12zM516.32 118.83 528.99 0H360.01l-10.77 101.01 167.08 17.82z"/>
    <path transform="rotate(-83.91 597.822 219.89)" style="fill:#231f20" d="M521.64 145.84h150.34v150.34H521.64z"/>
    <path transform="rotate(-83.91 403.195 377.018)" style="fill:#231f20" d="M318.16 294.11h168.03v168.03H318.16z"/>
    <path transform="rotate(-83.91 560.313 571.645)" style="fill:#231f20" d="M484.12 497.59h150.34v150.34H484.12z"/>
    <path transform="rotate(-83.91 365.691 728.768)" style="fill:#231f20" d="M280.65 645.86h168.03v168.03H280.65z"/>
    <path transform="rotate(-83.91 522.809 923.395)" style="fill:#231f20" d="M446.61 849.33h150.34v150.34H446.61z"/>
    <path style="fill:#231f20" d="m254.52 989.16-9.9 92.84H413.6l8-75.02-167.08-17.82zM177.7 0H0v68.22l168.5 17.97L177.7 0z"/>
    <path transform="rotate(-83.91 246.072 182.386)" style="fill:#231f20" d="M156.63 95.07H333.5v176.87H156.63z"/>
    <path style="fill:#231f20" d="M149.75 262.06 0 246.09v177.87l130.99 13.97 18.76-175.87z"/>
    <path transform="rotate(-83.91 208.563 534.141)" style="fill:#231f20" d="M119.11 446.81h176.87v176.87H119.11z"/>
    <path style="fill:#231f20" d="M112.23 613.8 0 601.83V779.7l93.48 9.97 18.75-175.87z"/>
    <path transform="rotate(-83.91 171.06 885.89)" style="fill:#231f20" d="M81.6 798.55h176.87v176.87H81.6z"/>
    <path style="fill:#231f20" d="M0 957.57V1082h62.3l12.42-116.46L0 957.57z"/>
</svg>
