<?xml version="1.0" encoding="utf-8"?>
<!-- Generator: Adobe Illustrator 23.0.6, SVG Export Plug-In . SVG Version: 6.00 Build 0)  -->
<svg version="1.1" id="Layer_1" xmlns="http://www.w3.org/2000/svg" xmlns:xlink="http://www.w3.org/1999/xlink" x="0px" y="0px"
	 viewBox="0 0 159.3 267.5" style="enable-background:new 0 0 159.3 267.5;" xml:space="preserve">
<style type="text/css">
	.st0{fill:none;stroke:url(#SVGID_1_);stroke-width:3;stroke-miterlimit:10;}
	.st1{fill:none;stroke:url(#SVGID_2_);stroke-width:3;stroke-miterlimit:10;}
	.st2{fill:none;stroke:url(#SVGID_3_);stroke-width:3;stroke-miterlimit:10;}
	.st3{fill:none;stroke:url(#SVGID_4_);stroke-width:3;stroke-miterlimit:10;}
	.st4{fill:none;stroke:url(#SVGID_5_);stroke-width:3;stroke-miterlimit:10;}
</style>
<title>Asset 2knight12</title>
<g id="f7807b54-f40f-4c35-9a56-6b037bfd4c85">
	<g id="a4af74cb-4743-4153-9aab-da809f5dd31d">
		
			<linearGradient id="SVGID_1_" gradientUnits="userSpaceOnUse" x1="10.2755" y1="26.8557" x2="159.2954" y2="26.8557" gradientTransform="matrix(1 0 0 -1 0 270)">
			<stop  offset="0" style="stop-color:#E5E2DF"/>
			<stop  offset="0" style="stop-color:#D8D4D0"/>
			<stop  offset="0" style="stop-color:#CCC7C2"/>
			<stop  offset="7.000000e-02" style="stop-color:#BDB9B4"/>
			<stop  offset="0.15" style="stop-color:#A7A3A0"/>
			<stop  offset="0.52" style="stop-color:#E0E1E2"/>
			<stop  offset="0.62" style="stop-color:#D3D3D3"/>
			<stop  offset="0.82" style="stop-color:#B2AFAC"/>
			<stop  offset="0.88" style="stop-color:#A7A3A0"/>
			<stop  offset="1" style="stop-color:#D1D3D4"/>
			<stop  offset="1" style="stop-color:#A7A9AC"/>
		</linearGradient>
		<path class="st0" d="M81.2,233.2c20,0,45.4-3.4,56.4-12.4c3.2,2.7,7.9,4.8,13.5,8.7c9.9,6.9,5.8,16.1,5.8,16.1s-15,20.5-72.2,20.5
			s-72.2-20.5-72.2-20.5s-4.1-9.1,5.8-16.1c4.2-2.9,8-4.8,10.9-6.7C39.8,230.4,62,233.2,81.2,233.2L81.2,233.2z"/>
		
			<linearGradient id="SVGID_2_" gradientUnits="userSpaceOnUse" x1="31.6283" y1="54.2309" x2="136.212" y2="54.2309" gradientTransform="matrix(1 0 0 -1 0 270)">
			<stop  offset="0" style="stop-color:#E5E2DF"/>
			<stop  offset="0" style="stop-color:#D8D4D0"/>
			<stop  offset="0" style="stop-color:#CCC7C2"/>
			<stop  offset="7.000000e-02" style="stop-color:#BDB9B4"/>
			<stop  offset="0.15" style="stop-color:#A7A3A0"/>
			<stop  offset="0.52" style="stop-color:#E0E1E2"/>
			<stop  offset="0.62" style="stop-color:#D3D3D3"/>
			<stop  offset="0.82" style="stop-color:#B2AFAC"/>
			<stop  offset="0.88" style="stop-color:#A7A3A0"/>
			<stop  offset="1" style="stop-color:#D1D3D4"/>
			<stop  offset="1" style="stop-color:#A7A9AC"/>
		</linearGradient>
		<path class="st1" d="M35.8,208.2c9,3.1,21.6,5.1,38.7,5.1c18.9,0,43.2-2.5,59.8-8.6c-0.4,2.3-0.6,4.7-0.6,7c0,1.5,0.2,3,0.8,4.4
			c-7.8,6.8-28.7,11.4-53.2,11.5h-0.1c-21,0-39-3.5-47.3-8.8c1.5-2,2.3-4.5,2.2-7C36,210.5,35.9,209.4,35.8,208.2z"/>
		
			<linearGradient id="SVGID_3_" gradientUnits="userSpaceOnUse" x1="67.1856" y1="159.877" x2="155.3246" y2="159.877" gradientTransform="matrix(1 0 0 -1 0 270)">
			<stop  offset="0" style="stop-color:#E5E2DF"/>
			<stop  offset="0" style="stop-color:#D8D4D0"/>
			<stop  offset="0" style="stop-color:#CCC7C2"/>
			<stop  offset="7.000000e-02" style="stop-color:#BDB9B4"/>
			<stop  offset="0.15" style="stop-color:#A7A3A0"/>
			<stop  offset="0.52" style="stop-color:#E0E1E2"/>
			<stop  offset="0.62" style="stop-color:#D3D3D3"/>
			<stop  offset="0.82" style="stop-color:#B2AFAC"/>
			<stop  offset="0.88" style="stop-color:#A7A3A0"/>
			<stop  offset="1" style="stop-color:#D1D3D4"/>
			<stop  offset="1" style="stop-color:#A7A9AC"/>
		</linearGradient>
		<path class="st2" d="M145.2,177.5c-5.1,8.6-30.6,17.6-64.8,17.6c-4.1,0-7.9-0.1-11.7-0.4c-0.4-10.8,3.3-22.7,11.3-34.6
			c4.9-7.4,10.8-14.2,16.5-20.9c3-3.5,6-6.9,8.8-10.5c14.8-18.3,23.7-35.7,27.3-53.3c2.3-11,4-29.3-3.3-46
			c5.4,4.9,10,10.6,13.8,16.9c20.6,35.4,7.6,67.3-5.9,91.3C131.2,148.4,140.5,165.2,145.2,177.5z"/>
		
			<linearGradient id="SVGID_4_" gradientUnits="userSpaceOnUse" x1="20.1233" y1="74.8217" x2="149.18" y2="74.8217" gradientTransform="matrix(1 0 0 -1 0 270)">
			<stop  offset="0" style="stop-color:#E5E2DF"/>
			<stop  offset="0" style="stop-color:#D8D4D0"/>
			<stop  offset="0" style="stop-color:#CCC7C2"/>
			<stop  offset="7.000000e-02" style="stop-color:#BDB9B4"/>
			<stop  offset="0.15" style="stop-color:#A7A3A0"/>
			<stop  offset="0.52" style="stop-color:#E0E1E2"/>
			<stop  offset="0.62" style="stop-color:#D3D3D3"/>
			<stop  offset="0.82" style="stop-color:#B2AFAC"/>
			<stop  offset="0.88" style="stop-color:#A7A3A0"/>
			<stop  offset="1" style="stop-color:#D1D3D4"/>
			<stop  offset="1" style="stop-color:#A7A9AC"/>
		</linearGradient>
		<path class="st3" d="M80.4,200.7c29.8,0,56.4-6.9,66.8-16.8c0.3,1,0.4,2.1,0.5,3.1c0,11.1-34.1,20.6-73.2,20.6s-52-11.1-52-17.7
			c0-1.1-0.1-2.1-0.3-3.2C33.9,196,53.4,200.7,80.4,200.7z"/>
		
			<linearGradient id="SVGID_5_" gradientUnits="userSpaceOnUse" x1="-1.376731e-03" y1="172.0062" x2="130.4933" y2="172.0062" gradientTransform="matrix(1 0 0 -1 0 270)">
			<stop  offset="0" style="stop-color:#E5E2DF"/>
			<stop  offset="0" style="stop-color:#D8D4D0"/>
			<stop  offset="0" style="stop-color:#CCC7C2"/>
			<stop  offset="7.000000e-02" style="stop-color:#BDB9B4"/>
			<stop  offset="0.15" style="stop-color:#A7A3A0"/>
			<stop  offset="0.52" style="stop-color:#E0E1E2"/>
			<stop  offset="0.62" style="stop-color:#D3D3D3"/>
			<stop  offset="0.82" style="stop-color:#B2AFAC"/>
			<stop  offset="0.88" style="stop-color:#A7A3A0"/>
			<stop  offset="1" style="stop-color:#D1D3D4"/>
			<stop  offset="1" style="stop-color:#A7A9AC"/>
		</linearGradient>
		<path class="st4" d="M39.7,38.1c-2.5,2.6-3.3,6.3-2.8,9.9c0.9,7.1-28.4,20.7-35,36.3c-1.9,4.6,4.2,26,12.6,26
			c14.7-0.2,16.4-15.8,31.6-15.8c38,0,51.3-13,47.7-32.2c0,0,8,12.9-10.5,34.6c-12.9,15.2-32.2,23.8-53.2,48.5
			c-8.2,9.7-11.9,28.7-7.5,34.5s21.5,12.6,40.5,14.4c-0.3-11.8,3.7-24.6,12.1-37.3c5.1-7.7,11.1-14.7,17-21.4
			c2.9-3.4,5.9-6.8,8.7-10.3c14.2-17.6,22.8-34.2,26.2-50.9c2.7-13,4.6-37.2-10.8-54.7C89.6,2.9,58,1.6,58,1.6l1.6,21.1
			C52.3,26.9,45.6,32.1,39.7,38.1z M14.4,88.5c0.5,2.2-1.3,6.4-4.1,6c-2.3-0.3-3.1-3.2-1.7-4.9C9.2,88.8,14.1,87.3,14.4,88.5z
			 M46.4,52.5c-1-0.8-0.8-2.4,0.4-2.9l16.5-7c0.3-0.1,0.6,0.2,0.4,0.5l-11,13.3c-0.6,0.8-1.7,0.9-2.4,0.2L46.4,52.5z"/>
	</g>
</g>
</svg>
