<svg xmlns="http://www.w3.org/2000/svg" xmlns:xlink="http://www.w3.org/1999/xlink" viewBox="0 0 159.3 267.53"><defs><linearGradient id="a6ed7f9b-4334-4fdd-b3f7-d29a3b2416c1" x1="10.28" y1="243.16" x2="159.3" y2="243.16" gradientUnits="userSpaceOnUse"><stop offset="0" stop-color="#cce0f4"/><stop offset="0.06" stop-color="#c3dcf2"/><stop offset="0.17" stop-color="#a9d2ee"/><stop offset="0.31" stop-color="#80c2e7"/><stop offset="0.46" stop-color="#47acde"/><stop offset="0.57" stop-color="#1e9cd7"/><stop offset="0.87" stop-color="#0075be"/><stop offset="0.99" stop-color="#005b97"/></linearGradient><linearGradient id="bda3a080-92d4-486e-ba9a-3872679b9991" x1="31.61" y1="215.77" x2="136.2" y2="215.77" xlink:href="#a6ed7f9b-4334-4fdd-b3f7-d29a3b2416c1"/><linearGradient id="a2cded3b-606e-4ff2-a93a-26e222b3a25b" x1="67.19" y1="110.06" x2="155.33" y2="110.06" xlink:href="#a6ed7f9b-4334-4fdd-b3f7-d29a3b2416c1"/><linearGradient id="e0de43b6-f736-4e52-8e95-05d43bdbe1fb" x1="20.13" y1="195.13" x2="149.18" y2="195.13" xlink:href="#a6ed7f9b-4334-4fdd-b3f7-d29a3b2416c1"/><linearGradient id="b5c57b81-2af2-4867-8db5-ce1f76b64718" x1="0" y1="97.98" x2="130.45" y2="97.98" xlink:href="#a6ed7f9b-4334-4fdd-b3f7-d29a3b2416c1"/></defs><title>Asset 1knight</title><g id="b1397e76-1669-4bb0-a8ce-507f1e7be41e" data-name="Layer 2"><g id="bd9912eb-37a1-42ff-855b-5c33d244c49d" data-name="Layer 1"><path d="M81.17,233.2c20,0,45.38-3.38,56.42-12.45,3.17,2.74,7.94,4.78,13.53,8.67,9.95,6.94,5.83,16.08,5.83,16.08S141.91,266,84.79,266,12.62,245.5,12.62,245.5s-4.12-9.14,5.84-16.08c4.22-2.94,8-4.81,10.91-6.72,10.45,7.66,32.64,10.5,51.71,10.5Z" style="fill:none;stroke-miterlimit:10;stroke-width:3px;stroke:url(#a6ed7f9b-4334-4fdd-b3f7-d29a3b2416c1)"/><path d="M35.79,208.21c9,3.11,21.63,5.15,38.69,5.15,18.87,0,43.17-2.51,59.78-8.59a39.14,39.14,0,0,0-.65,7,12.74,12.74,0,0,0,.75,4.35c-7.76,6.81-28.67,11.44-53.19,11.46h-.1c-21,0-39-3.49-47.28-8.77a11.11,11.11,0,0,0,2.17-7C36,210.53,35.9,209.35,35.79,208.21Z" style="fill:none;stroke-miterlimit:10;stroke-width:3px;stroke:url(#bda3a080-92d4-486e-ba9a-3872679b9991)"/><path d="M145.23,177.49c-5.13,8.61-30.62,17.61-64.85,17.61-4.09,0-7.94-.14-11.66-.35C68.28,184,72.06,172.08,80,160.13c4.87-7.37,10.79-14.24,16.52-20.88,3-3.46,6-6.92,8.81-10.46C120.08,110.5,129,93.06,132.64,75.48c2.25-11,4-29.28-3.34-46a72.89,72.89,0,0,1,13.76,16.87c20.63,35.36,7.62,67.26-5.89,91.34C131.18,148.4,140.54,165.22,145.23,177.49Z" style="fill:none;stroke-miterlimit:10;stroke-width:3px;stroke:url(#a2cded3b-606e-4ff2-a93a-26e222b3a25b)"/><path d="M80.38,200.73c29.83,0,56.41-6.94,66.79-16.77a16.88,16.88,0,0,1,.51,3.14c0,11.07-34.08,20.63-73.2,20.63s-52-11.07-52-17.68a24.92,24.92,0,0,0-.29-3.21C33.93,196,53.42,200.73,80.38,200.73Z" style="fill:none;stroke-miterlimit:10;stroke-width:3px;stroke:url(#e0de43b6-f736-4e52-8e95-05d43bdbe1fb)"/><path d="M39.69,38.13c-2.52,2.62-3.27,6.29-2.83,9.9.87,7.11-28.39,20.65-35,36.33-1.94,4.62,4.17,26,12.6,26,14.74-.19,16.4-15.81,31.63-15.81,38,0,51.28-13,47.66-32.18,0,0,8,12.89-10.47,34.61-12.86,15.16-32.22,23.77-53.15,48.49-8.18,9.67-11.85,28.72-7.48,34.48s21.53,12.64,40.48,14.39c-.3-11.79,3.73-24.59,12.14-37.3,5.07-7.66,11.11-14.67,17-21.45,2.93-3.41,5.87-6.82,8.69-10.32,14.22-17.57,22.79-34.22,26.21-50.9,2.66-13,4.62-37.21-10.78-54.7C89.55,2.93,58,1.57,58,1.57l1.58,21.12A90.81,90.81,0,0,0,39.69,38.13ZM14.38,88.48c.46,2.23-1.29,6.39-4.08,6C8,94.22,7.2,91.27,8.56,89.6,9.19,88.83,14.13,87.26,14.38,88.48Zm31.14-37.1c3.11-4.33,13.32-7.41,17.8-6.55C63.32,47.05,61.71,61,45.52,51.38Z" style="fill:none;stroke-miterlimit:10;stroke-width:3px;stroke:url(#b5c57b81-2af2-4867-8db5-ce1f76b64718)"/></g></g></svg>