<svg xmlns="http://www.w3.org/2000/svg" viewBox="0 0 182.69 264.45"><title>Asset 11knight-white</title><g id="aa208d97-adef-41f5-aac5-dc6927c9ef14" data-name="Layer 2"><g id="ef636d8e-055b-40b0-bfa6-4302eb380b66" data-name="Layer 1"><path d="M93.12,231.63c23.44,0,53-3.38,66-12.45,3.69,2.74,9.27,4.77,15.8,8.67,11.64,6.93,6.82,16.07,6.82,16.07s-17.58,20.53-84.35,20.53S13,243.92,13,243.92s-4.82-9.14,6.82-16.07c4.93-2.94,9.3-4.81,12.76-6.72,12.21,7.66,38.15,10.5,60.44,10.5Z" style="fill:#fff"/><path d="M40.08,206.64c10.57,3.11,25.28,5.15,45.22,5.15,22.06,0,50.46-2.51,69.88-8.59a33.21,33.21,0,0,0-.76,7,11,11,0,0,0,.88,4.35C146.23,221.36,121.78,226,93.12,226H93c-24.54,0-45.62-3.49-55.27-8.77a10.05,10.05,0,0,0,2.54-7A31.31,31.31,0,0,0,40.08,206.64Z" style="fill:#fff"/><path d="M168,175.92c-6,8.61-35.79,17.61-75.81,17.61-4.77,0-9.27-.14-13.61-.36-.52-10.76,3.89-22.67,13.14-34.62,5.7-7.36,12.61-14.23,19.31-20.88,3.47-3.45,7-6.91,10.3-10.45,17.28-18.29,27.73-35.73,32-53.31,2.63-11,4.69-29.28-3.89-46A77.18,77.18,0,0,1,165.47,44.8c24.11,35.37,8.9,67.27-6.89,91.35C151.58,146.83,162.52,163.65,168,175.92Z" style="fill:#fff"/><path d="M92.19,199.16c34.88,0,65.94-6.94,78.08-16.77a14.61,14.61,0,0,1,.6,3.14c0,11.07-39.84,20.63-85.57,20.63s-60.84-11.07-60.84-17.68a19.85,19.85,0,0,0-.34-3.21C37.9,194.46,60.69,199.16,92.19,199.16Z" style="fill:#fff"/><path d="M44.64,36.56a10.78,10.78,0,0,0-3.31,9.9c1,7.11-33.18,20.65-40.9,36.33-2.28,4.62,4.86,26,14.71,26C32.37,108.58,34.32,93,52.12,93c44.4,0,59.94-13,55.7-32.18,0,0,9.31,12.89-12.23,34.61-15,15.16-37.66,23.77-62.12,48.49-9.57,9.67-13.86,28.72-8.75,34.47S49.89,191,72,192.74c-.36-11.78,4.36-24.58,14.18-37.3,5.94-7.65,13-14.66,19.83-21.44,3.43-3.41,6.87-6.82,10.16-10.32,16.61-17.57,26.63-34.23,30.63-50.91,3.12-13,5.41-37.2-12.59-54.69C102.92,1.36,66.09,0,66.09,0l1.85,21.11A106.92,106.92,0,0,0,44.64,36.56ZM15.06,86.91c.53,2.22-1.51,6.39-4.78,6a2.93,2.93,0,0,1-2-4.91C9,87.26,14.76,85.69,15.06,86.91Zm36.4-37.1c3.63-4.33,15.56-7.41,20.8-6.55C72.26,45.48,70.38,59.44,51.46,49.81Z" style="fill:#fff"/></g></g></svg>