<svg xmlns="http://www.w3.org/2000/svg" viewBox="0 0 184.69 266.49"><title>Asset 14favicon</title><g id="a1217cc3-7227-4a9d-ac31-ce44a8a0542c" data-name="Layer 2"><g id="b6f52993-dd55-412f-ae2c-df3498769f97" data-name="Layer 1"><path d="M94.12,232.67c23.44,0,53-3.38,66-12.45,3.69,2.74,9.27,4.78,15.8,8.67,11.64,6.94,6.82,16.08,6.82,16.08s-17.58,20.52-84.35,20.52S14,245,14,245s-4.82-9.14,6.82-16.08c4.93-2.94,9.3-4.81,12.76-6.72,12.21,7.66,38.15,10.5,60.44,10.5Z" style="stroke:#fff;stroke-miterlimit:10;stroke-width:2px"/><path d="M41.08,207.68c10.57,3.11,25.28,5.15,45.22,5.15,22.06,0,50.46-2.51,69.88-8.59a33.28,33.28,0,0,0-.76,7,11,11,0,0,0,.88,4.35c-9.07,6.81-33.52,11.44-62.18,11.46H94c-24.54,0-45.62-3.49-55.27-8.77a10.05,10.05,0,0,0,2.54-7A31.31,31.31,0,0,0,41.08,207.68Z" style="stroke:#fff;stroke-miterlimit:10;stroke-width:2px"/><path d="M169,177c-6,8.61-35.79,17.61-75.81,17.61-4.77,0-9.27-.14-13.61-.35-.52-10.77,3.89-22.68,13.14-34.63,5.7-7.36,12.61-14.23,19.31-20.87,3.47-3.46,7-6.92,10.3-10.46,17.28-18.29,27.73-35.73,32-53.31,2.63-11,4.69-29.28-3.89-46a77,77,0,0,1,16.08,16.87c24.11,35.36,8.9,67.26-6.89,91.34C152.58,147.87,163.52,164.69,169,177Z" style="stroke:#fff;stroke-miterlimit:10;stroke-width:2px"/><path d="M93.19,200.2c34.88,0,65.94-6.94,78.08-16.77a14.61,14.61,0,0,1,.6,3.14c0,11.07-39.84,20.63-85.57,20.63s-60.84-11.07-60.84-17.68a19.85,19.85,0,0,0-.34-3.21C38.9,195.5,61.69,200.2,93.19,200.2Z" style="stroke:#fff;stroke-miterlimit:10;stroke-width:2px"/><path d="M45.64,37.6a10.78,10.78,0,0,0-3.31,9.9c1,7.11-33.18,20.65-40.9,36.33-2.28,4.62,4.86,26,14.71,26C33.37,109.62,35.32,94,53.12,94c44.4,0,59.94-13,55.7-32.18,0,0,9.31,12.89-12.23,34.61-15,15.16-37.66,23.77-62.12,48.49-9.57,9.67-13.86,28.72-8.75,34.48S50.89,192,73,193.79c-.36-11.79,4.36-24.59,14.18-37.3,5.94-7.66,13-14.67,19.83-21.45,3.43-3.41,6.87-6.82,10.16-10.32,16.61-17.57,26.63-34.22,30.63-50.9,3.12-13,5.41-37.21-12.59-54.7C103.92,2.4,67.09,1,67.09,1l1.85,21.12A106.65,106.65,0,0,0,45.64,37.6ZM16.06,88c.53,2.23-1.51,6.39-4.78,6a2.93,2.93,0,0,1-2-4.91C10,88.3,15.76,86.73,16.06,88Zm36.4-37.1c3.63-4.33,15.56-7.41,20.8-6.55C73.26,46.52,71.38,60.49,52.46,50.85Z" style="stroke:#fff;stroke-miterlimit:10;stroke-width:2px"/></g></g></svg>