<?xml version="1.0" encoding="utf-8"?>
<!-- Generator: Adobe Illustrator 23.0.6, SVG Export Plug-In . SVG Version: 6.00 Build 0)  -->
<svg version="1.1" id="Layer_1" xmlns="http://www.w3.org/2000/svg" xmlns:xlink="http://www.w3.org/1999/xlink" x="0px" y="0px"
	 viewBox="0 0 182.7 264.5" style="enable-background:new 0 0 182.7 264.5;" xml:space="preserve">
<style type="text/css">
	.st0{fill:#7F7C7C;}
</style>
<title>Asset 13knight-black</title>
<g id="b5dab8c4-9503-41ba-91c8-5e761fd788eb">
	<g id="a21bb0a2-8825-4ce9-8255-92213555d459">
		<path class="st0" d="M93.1,231.6c23.4,0,53-3.4,66-12.4c3.7,2.7,9.3,4.8,15.8,8.7c11.6,6.9,6.8,16.1,6.8,16.1
			s-17.6,20.5-84.3,20.5S13,243.9,13,243.9s-4.8-9.1,6.8-16.1c4.9-2.9,9.3-4.8,12.8-6.7C44.8,228.8,70.7,231.6,93.1,231.6
			L93.1,231.6z"/>
		<path class="st0" d="M40.1,206.6c10.6,3.1,25.3,5.1,45.2,5.1c22.1,0,50.5-2.5,69.9-8.6c-0.5,2.3-0.8,4.6-0.8,7
			c0,1.5,0.3,3,0.9,4.4c-9.1,6.8-33.5,11.4-62.2,11.4H93c-24.5,0-45.6-3.5-55.3-8.8c1.7-1.9,2.6-4.4,2.5-7
			C40.3,209,40.2,207.8,40.1,206.6z"/>
		<path class="st0" d="M168,175.9c-6,8.6-35.8,17.6-75.8,17.6c-4.8,0-9.3-0.1-13.6-0.4c-0.5-10.8,3.9-22.7,13.1-34.6
			c5.7-7.4,12.6-14.2,19.3-20.9c3.5-3.4,7-6.9,10.3-10.5c17.3-18.3,27.7-35.7,32-53.3c2.6-11,4.7-29.3-3.9-46
			c6.2,4.8,11.6,10.5,16,16.9c24.1,35.4,8.9,67.3-6.9,91.4C151.6,146.8,162.5,163.6,168,175.9z"/>
		<path class="st0" d="M92.2,199.2c34.9,0,65.9-6.9,78.1-16.8c0.3,1,0.5,2.1,0.6,3.1c0,11.1-39.8,20.6-85.6,20.6
			s-60.8-11.1-60.8-17.7c0-1.1-0.1-2.2-0.3-3.2C37.9,194.5,60.7,199.2,92.2,199.2z"/>
		<path class="st0" d="M44.6,36.6c-2.7,2.5-4,6.3-3.3,9.9c1,7.1-33.2,20.7-40.9,36.3c-2.3,4.6,4.9,26,14.7,26
			c17.2-0.2,19.2-15.8,37-15.8c44.4,0,59.9-13,55.7-32.2c0,0,9.3,12.9-12.2,34.6c-15,15.2-37.7,23.8-62.1,48.5
			c-9.6,9.7-13.9,28.7-8.8,34.5S49.9,191,72,192.7c-0.4-11.8,4.4-24.6,14.2-37.3c5.9-7.6,13-14.7,19.8-21.4
			c3.4-3.4,6.9-6.8,10.2-10.3c16.6-17.6,26.6-34.2,30.6-50.9c3.1-13,5.4-37.2-12.6-54.7C102.9,1.4,66.1,0,66.1,0l1.8,21.1
			C59.5,25.2,51.7,30.4,44.6,36.6z M15.1,86.9c0.5,2.2-1.5,6.4-4.8,6c-1.6-0.1-2.9-1.5-2.8-3.1c0-0.7,0.3-1.3,0.8-1.8
			C9,87.3,14.8,85.7,15.1,86.9z M51.5,49.8c3.6-4.3,15.6-7.4,20.8-6.5C72.3,45.5,70.4,59.4,51.5,49.8z"/>
	</g>
</g>
</svg>
