<svg xmlns="http://www.w3.org/2000/svg" viewBox="0 0 158.3 266.5"><title>Asset 6knight-gd</title><g id="e46ce295-c55b-4ccc-8659-c8be4de6f051" data-name="Layer 2"><g id="b5105b77-db6a-416d-8d4d-a87710bbcc15" data-name="Layer 1"><path d="M80.67,232.68c20,0,45.38-3.38,56.42-12.45,3.17,2.74,7.94,4.77,13.53,8.67,9.95,6.93,5.83,16.07,5.83,16.07s-15,20.53-72.16,20.53S12.12,245,12.12,245,8,235.83,18,228.9c4.22-2.94,8-4.81,10.91-6.73,10.45,7.66,32.64,10.51,51.71,10.51Z" style="fill:none;stroke:gray;stroke-miterlimit:10;stroke-width:2px"/><path d="M35.29,207.69c9,3.11,21.63,5.14,38.69,5.14,18.87,0,43.17-2.5,59.78-8.58a39,39,0,0,0-.65,7,12.69,12.69,0,0,0,.75,4.35c-7.76,6.82-28.67,11.45-53.19,11.46h-.1c-21,0-39-3.48-47.28-8.76a11.12,11.12,0,0,0,2.17-7C35.46,210,35.4,208.82,35.29,207.69Z" style="fill:none;stroke:gray;stroke-miterlimit:10;stroke-width:2px"/><path d="M144.73,177c-5.13,8.61-30.62,17.61-64.85,17.61-4.09,0-7.94-.14-11.66-.36-.44-10.76,3.34-22.67,11.25-34.62,4.87-7.36,10.79-14.23,16.52-20.88,3-3.46,6-6.91,8.81-10.45C119.58,110,128.53,92.54,132.14,75c2.25-11,4-29.27-3.34-46a73,73,0,0,1,13.76,16.86c20.63,35.36,7.62,67.27-5.89,91.35C130.68,147.88,140,164.7,144.73,177Z" style="fill:none;stroke:gray;stroke-miterlimit:10;stroke-width:2px"/><path d="M79.88,200.21c29.83,0,56.41-7,66.79-16.77a16.88,16.88,0,0,1,.51,3.14c0,11.07-34.08,20.63-73.2,20.63s-52-11.08-52-17.68a25.06,25.06,0,0,0-.29-3.22C33.43,195.5,52.92,200.21,79.88,200.21Z" style="fill:none;stroke:gray;stroke-miterlimit:10;stroke-width:2px"/><path d="M39.19,37.61c-2.52,2.61-3.27,6.29-2.83,9.9.87,7.11-28.39,20.65-35,36.32-1.94,4.62,4.17,26,12.6,26C28.7,109.63,30.36,94,45.59,94c38,0,51.28-13.05,47.66-32.19,0,0,8,12.89-10.47,34.62-12.86,15.16-32.22,23.77-53.15,48.49-8.18,9.66-11.85,28.72-7.48,34.47s21.53,12.65,40.48,14.39c-.3-11.78,3.73-24.59,12.14-37.3,5.07-7.65,11.11-14.66,17-21.44,2.93-3.41,5.87-6.82,8.69-10.32,14.22-17.57,22.79-34.23,26.21-50.91,2.66-13,4.62-37.2-10.78-54.69C89.05,2.41,57.54,1.05,57.54,1.05l1.58,21.11A90.68,90.68,0,0,0,39.19,37.61ZM13.88,88c.46,2.22-1.29,6.39-4.08,6-2.31-.3-3.1-3.24-1.74-4.91C8.69,88.31,13.63,86.74,13.88,88ZM45,50.85c3.11-4.32,13.32-7.4,17.8-6.55C62.82,46.53,61.21,60.49,45,50.85Z" style="fill:none;stroke:gray;stroke-miterlimit:10;stroke-width:2px"/></g></g></svg>